<svg width="30" height="31" viewBox="0 0 30 31" fill="none" xmlns="http://www.w3.org/2000/svg">
<path d="M14.3505 2.125C14.6392 1.625 15.3608 1.625 15.6495 2.125L26.9079 21.625C27.1965 22.125 26.8357 22.75 26.2583 22.75H3.74167C3.16432 22.75 2.80348 22.125 3.09215 21.625L14.3505 2.125Z" fill="url(#paint0_linear_221_144)" stroke="url(#paint1_linear_221_144)" stroke-width="0.5"/>
<path d="M14.5671 12.5C14.7595 12.1667 15.2406 12.1667 15.4331 12.5L21.0623 22.25C21.2547 22.5833 21.0141 23 20.6292 23H9.37091C8.98601 23 8.74545 22.5833 8.9379 22.25L14.5671 12.5Z" fill="url(#paint2_linear_221_144)"/>
<defs>
<linearGradient id="paint0_linear_221_144" x1="15" y1="0.5" x2="15" y2="36" gradientUnits="userSpaceOnUse">
<stop offset="0.209551" stop-color="white"/>
<stop offset="1" stop-color="white" stop-opacity="0"/>
</linearGradient>
<linearGradient id="paint1_linear_221_144" x1="15.5" y1="39" x2="15.5" y2="-1.12355e-06" gradientUnits="userSpaceOnUse">
<stop stop-opacity="0"/>
<stop offset="0.509828" stop-opacity="0.674929"/>
<stop offset="0.75538"/>
</linearGradient>
<linearGradient id="paint2_linear_221_144" x1="15" y1="11.75" x2="15" y2="48.5" gradientUnits="userSpaceOnUse">
<stop/>
<stop offset="1" stop-opacity="0"/>
</linearGradient>
</defs>
</svg>
