<svg width="17" height="20" viewBox="0 0 17 20" fill="none" xmlns="http://www.w3.org/2000/svg">
<path d="M16.1 14.227C15.994 14.534 15.883 14.827 15.765 15.108C15.477 15.772 15.137 16.383 14.743 16.944C14.207 17.71 13.767 18.24 13.428 18.534C12.903 19.017 12.34 19.265 11.737 19.278C11.304 19.278 10.783 19.155 10.175 18.906C9.56601 18.657 9.00601 18.534 8.49401 18.534C7.95701 18.534 7.38101 18.657 6.76501 18.906C6.14801 19.155 5.65101 19.286 5.27101 19.298C4.69301 19.323 4.11701 19.069 3.54201 18.534C3.17501 18.214 2.71601 17.665 2.16601 16.888C1.57601 16.058 1.09101 15.095 0.711006 13.997C0.304006 12.812 0.100006 11.664 0.100006 10.553C0.100006 9.27999 0.375006 8.18199 0.926006 7.26199C1.35901 6.52299 1.93501 5.93999 2.65601 5.51199C3.37701 5.08399 4.15601 4.86599 4.99501 4.85199C5.45401 4.85199 6.05601 4.99399 6.80401 5.27299C7.55001 5.55299 8.02901 5.69499 8.23901 5.69499C8.39601 5.69499 8.92801 5.52899 9.83001 5.19799C10.683 4.89099 11.403 4.76399 11.993 4.81399C13.591 4.94299 14.791 5.57299 15.59 6.70799C14.161 7.57399 13.454 8.78699 13.468 10.343C13.481 11.555 13.92 12.564 14.784 13.365C15.176 13.736 15.614 14.023 16.1 14.227ZM12.08 0.304993C12.093 0.431993 12.099 0.558993 12.099 0.684993C12.099 1.63499 11.752 2.52199 11.061 3.34299C10.226 4.31899 9.21601 4.88299 8.12101 4.79399C8.10701 4.67999 8.09901 4.55999 8.09901 4.43399C8.09901 3.52199 8.49601 2.54599 9.20101 1.74799C9.55301 1.34399 10.001 1.00799 10.543 0.739992C11.085 0.475992 11.598 0.329993 12.08 0.304993Z" fill="white"/>
</svg>
