<svg width="32" height="32" viewBox="0 0 32 32" fill="none" xmlns="http://www.w3.org/2000/svg">
<path d="M32 16C32 24.8366 24.8366 32 16 32C7.16344 32 0 24.8366 0 16C0 7.16344 7.16344 0 16 0C24.8366 0 32 7.16344 32 16ZM3.2 16C3.2 23.0692 8.93076 28.8 16 28.8C23.0692 28.8 28.8 23.0692 28.8 16C28.8 8.93076 23.0692 3.2 16 3.2C8.93076 3.2 3.2 8.93076 3.2 16Z" fill="white" fill-opacity="0.5"/>
<path d="M16 1.6C16 0.716344 16.7181 -0.00828653 17.5973 0.0799329C19.1505 0.235773 20.6755 0.61837 22.1229 1.21793C24.0641 2.022 25.828 3.20055 27.3137 4.68629C28.7994 6.17203 29.978 7.93585 30.7821 9.87706C31.3816 11.3245 31.7642 12.8495 31.9201 14.4027C32.0083 15.2819 31.2837 16 30.4 16V16C29.5163 16 28.8103 15.2809 28.7001 14.4042C28.5578 13.2716 28.2643 12.1607 27.8257 11.1017C27.1824 9.54868 26.2396 8.13762 25.051 6.94903C23.8624 5.76044 22.4513 4.8176 20.8983 4.17434C19.8393 3.73568 18.7284 3.44219 17.5958 3.29987C16.7191 3.1897 16 2.48365 16 1.6V1.6Z" fill="white"/>
</svg>
